HIERARCHY
ROOT Hips
{
  OFFSET 5.84602e-005 68.8428 3.50346
  CHANNELS 6 Xposition Yposition Zposition Zrotation Xrotation Yrotation
  JOINT Spine
  {
    OFFSET 0 8.597 -4.6522
    CHANNELS 3 Zrotation Xrotation Yrotation
    JOINT Spine1
    {
      OFFSET 0 7.8454 0.4098
      CHANNELS 3 Zrotation Xrotation Yrotation
      JOINT Spine2
      {
        OFFSET 0 9.7078 -2.1609
        CHANNELS 3 Zrotation Xrotation Yrotation
        JOINT Neck
        {
          OFFSET 0 21.8761 -0.4549
          CHANNELS 3 Zrotation Xrotation Yrotation
          JOINT Head
          {
            OFFSET 0 12.3537 3.3602
            CHANNELS 3 Zrotation Xrotation Yrotation
            End Site
            {
              OFFSET 0.0001 18.9506 0.5657
            }
          }
        }
        JOINT LeftShoulder
        {
          OFFSET 2.2086 21.1115 7.2329
          CHANNELS 3 Zrotation Xrotation Yrotation
          JOINT LeftArm
          {
            OFFSET 13.1193 3.0282 -4.8998
            CHANNELS 3 Zrotation Xrotation Yrotation
            JOINT LeftForeArm
            {
              OFFSET 27.4081 -0.0973053 -0.2375
              CHANNELS 3 Zrotation Xrotation Yrotation
              JOINT LeftHand
              {
                OFFSET 22.8641 0.0662994 -0.1369
                CHANNELS 3 Zrotation Xrotation Yrotation
                JOINT LeftHandIndex1
                {
                  OFFSET 8.8614 0.775009 2.4612
                  CHANNELS 3 Zrotation Xrotation Yrotation
                  JOINT LeftHandIndex2
                  {
                    OFFSET 3.3146 -0.808304 0.5841
                    CHANNELS 3 Zrotation Xrotation Yrotation
                    JOINT LeftHandIndex3
                    {
                      OFFSET 2.2628 -0.552002 0.3989
                      CHANNELS 3 Zrotation Xrotation Yrotation
                      End Site
                      {
                        OFFSET 1.6102 -0.4807 0.2612
                      }
                    }
                  }
                }
                JOINT LeftHandMiddle1
                {
                  OFFSET 8.9937 0.895004 0.2143
                  CHANNELS 3 Zrotation Xrotation Yrotation
                  JOINT LeftHandMiddle2
                  {
                    OFFSET 4.0984 0.0113983 -0.0242
                    CHANNELS 3 Zrotation Xrotation Yrotation
                    JOINT LeftHandMiddle3
                    {
                      OFFSET 2.2716 0.00689697 -0.0138001
                      CHANNELS 3 Zrotation Xrotation Yrotation
                      End Site
                      {
                        OFFSET 2.0404 -0.1441 0.0027
                      }
                    }
                  }
                }
                JOINT LeftHandRing1
                {
                  OFFSET 8.5234 0.597198 -2.0164
                  CHANNELS 3 Zrotation Xrotation Yrotation
                  JOINT LeftHandRing2
                  {
                    OFFSET 3.7188 -0.188293 -0.2328
                    CHANNELS 3 Zrotation Xrotation Yrotation
                    JOINT LeftHandRing3
                    {
                      OFFSET 2.1191 -0.106598 -0.1332
                      CHANNELS 3 Zrotation Xrotation Yrotation
                      End Site
                      {
                        OFFSET 1.8737 -0.2304 -0.0886
                      }
                    }
                  }
                }
                JOINT LeftHandPinky1
                {
                  OFFSET 7.9094 -0.601089 -3.4825
                  CHANNELS 3 Zrotation Xrotation Yrotation
                  JOINT LeftHandPinky2
                  {
                    OFFSET 2.2874 -0.477005 -0.6314
                    CHANNELS 3 Zrotation Xrotation Yrotation
                    JOINT LeftHandPinky3
                    {
                      OFFSET 1.6774 -0.349396 -0.4633
                      CHANNELS 3 Zrotation Xrotation Yrotation
                      End Site
                      {
                        OFFSET 1.4888 -0.4091 -0.3416
                      }
                    }
                  }
                }
                JOINT LeftHandThumb1
                {
                  OFFSET 1.833 -1.3875 1.3896
                  CHANNELS 3 Zrotation Xrotation Yrotation
                  JOINT LeftHandThumb2
                  {
                    OFFSET 3.4129 -1.121 2.5732
                    CHANNELS 3 Zrotation Xrotation Yrotation
                    JOINT LeftHandThumb3
                    {
                      OFFSET 2.2474 -0.804199 1.6192
                      CHANNELS 3 Zrotation Xrotation Yrotation
                      End Site
                      {
                        OFFSET 1.6527 -0.5689 1.1317
                      }
                    }
                  }
                }
              }
            }
          }
        }
        JOINT RightShoulder
        {
          OFFSET -2.2086 21.1115 7.2329
          CHANNELS 3 Zrotation Xrotation Yrotation
          JOINT RightArm
          {
            OFFSET -13.1216 3.0287 -4.9007
            CHANNELS 3 Zrotation Xrotation Yrotation
            JOINT RightForeArm
            {
              OFFSET -27.4081 -0.0973053 -0.2375
              CHANNELS 3 Zrotation Xrotation Yrotation
              JOINT RightHand
              {
                OFFSET -22.8641 0.0664063 -0.1369
                CHANNELS 3 Zrotation Xrotation Yrotation
                JOINT RightHandIndex1
                {
                  OFFSET -8.8614 0.774994 2.4612
                  CHANNELS 3 Zrotation Xrotation Yrotation
                  JOINT RightHandIndex2
                  {
                    OFFSET -3.3146 -0.808304 0.5841
                    CHANNELS 3 Zrotation Xrotation Yrotation
                    JOINT RightHandIndex3
                    {
                      OFFSET -2.2628 -0.552002 0.3989
                      CHANNELS 3 Zrotation Xrotation Yrotation
                      End Site
                      {
                        OFFSET -1.6102 -0.4807 0.2612
                      }
                    }
                  }
                }
                JOINT RightHandMiddle1
                {
                  OFFSET -8.9937 0.894989 0.2143
                  CHANNELS 3 Zrotation Xrotation Yrotation
                  JOINT RightHandMiddle2
                  {
                    OFFSET -4.0984 0.0113983 -0.0242
                    CHANNELS 3 Zrotation Xrotation Yrotation
                    JOINT RightHandMiddle3
                    {
                      OFFSET -2.2716 0.00691223 -0.0138001
                      CHANNELS 3 Zrotation Xrotation Yrotation
                      End Site
                      {
                        OFFSET -2.0404 -0.1441 0.0027
                      }
                    }
                  }
                }
                JOINT RightHandRing1
                {
                  OFFSET -8.5234 0.597198 -2.0164
                  CHANNELS 3 Zrotation Xrotation Yrotation
                  JOINT RightHandRing2
                  {
                    OFFSET -3.7188 -0.188309 -0.2328
                    CHANNELS 3 Zrotation Xrotation Yrotation
                    JOINT RightHandRing3
                    {
                      OFFSET -2.1191 -0.106598 -0.1332
                      CHANNELS 3 Zrotation Xrotation Yrotation
                      End Site
                      {
                        OFFSET -1.8737 -0.2304 -0.0886
                      }
                    }
                  }
                }
                JOINT RightHandPinky1
                {
                  OFFSET -7.9094 -0.601105 -3.4825
                  CHANNELS 3 Zrotation Xrotation Yrotation
                  JOINT RightHandPinky2
                  {
                    OFFSET -2.2874 -0.477005 -0.6314
                    CHANNELS 3 Zrotation Xrotation Yrotation
                    JOINT RightHandPinky3
                    {
                      OFFSET -1.6774 -0.349396 -0.4633
                      CHANNELS 3 Zrotation Xrotation Yrotation
                      End Site
                      {
                        OFFSET -1.4888 -0.4091 -0.3416
                      }
                    }
                  }
                }
                JOINT RightHandThumb1
                {
                  OFFSET -1.833 -1.38751 1.3896
                  CHANNELS 3 Zrotation Xrotation Yrotation
                  JOINT RightHandThumb2
                  {
                    OFFSET -3.41299 -1.12099 2.5732
                    CHANNELS 3 Zrotation Xrotation Yrotation
                    JOINT RightHandThumb3
                    {
                      OFFSET -2.24741 -0.804108 1.6192
                      CHANNELS 3 Zrotation Xrotation Yrotation
                      End Site
                      {
                        OFFSET -1.6527 -0.5689 1.1317
                      }
                    }
                  }
                }
              }
            }
          }
        }
      }
    }
  }
  JOINT RightUpLeg
  {
    OFFSET -9.1966 3.8861 -0.7581
    CHANNELS 3 Zrotation Xrotation Yrotation
    JOINT RightLeg
    {
      OFFSET -0.7359 -41.0265 0
      CHANNELS 3 Zrotation Xrotation Yrotation
      JOINT RightFoot
      {
        OFFSET 0 -40.2855 0
        CHANNELS 3 Zrotation Xrotation Yrotation
        JOINT RightToeBase
        {
          OFFSET 0 -5.6122 11.7359
          CHANNELS 3 Zrotation Xrotation Yrotation
          End Site
          {
            OFFSET 0 0 7.8731
          }
        }
      }
    }
  }
  JOINT LeftUpLeg
  {
    OFFSET 9.1965 3.8864 -0.7581
    CHANNELS 3 Zrotation Xrotation Yrotation
    JOINT LeftLeg
    {
      OFFSET 0.7359 -41.0268 0
      CHANNELS 3 Zrotation Xrotation Yrotation
      JOINT LeftFoot
      {
        OFFSET 0 -40.2855 0
        CHANNELS 3 Zrotation Xrotation Yrotation
        JOINT LeftToeBase
        {
          OFFSET 0 -5.6122 11.7359
          CHANNELS 3 Zrotation Xrotation Yrotation
          End Site
          {
            OFFSET 0 0 7.8731
          }
        }
      }
    }
  }
}
MOTION
Frames:	4
Frame Time:	0.0333333
5.84602e-005 68.8428 3.50346 0 0 -0 0 0 -0 0 0 -0 0 0 -0 0 0 -0 0 0 -0 0 0 -0 0 0 -0 0 0 -0 0 0 -0 0 0 -0 0 0 -0 0 0 -0 0 0 -0 -0.0146107 -8.87603e-005 -2.63497e-007 2.99804e-018 -2.42657e-020 -1.42182e-022 0 0 -0 -0.0187562 -0.001176 5.858e-005 5.06224e-018 3.88251e-019 1.21329e-020 0 0 -0 -0.012269 -0.00324817 0.000675346 -1.74678e-018 3.88251e-019 -0 0 0 -0 0 0 -0 0 0 -0 0 0 -0 0 0 -0 0 0 -0 0 0 -0 0 0 -0 0 0 -0 0 0 -0 0 0 -0 0.0149955 -9.10982e-005 2.64101e-007 -9.69331e-018 1.21329e-020 -4.7394e-023 0 0 -0 0.0189956 -0.00119102 -5.96516e-005 -5.41541e-019 0 2.42657e-020 0 0 -0 0.0122698 -0.00324857 -0.000673756 -2.00796e-019 0 -1.94126e-019 0 0 -0 0 0 -0 0 0 -0 3.39842 1.33031 -0.0637918 -5.65207e-008 0.834868 -0.000436188 -3.39935 -2.16518 -0.0642563 -8.89002e-024 -1.18485e-023 -1.48106e-024 -3.39844 1.35642 0.0640283 -3.18788e-007 0.782166 -0.000588827 3.39931 -2.13858 0.0634662 1.1399e-023 0 -0 
-8.02549 36.1524 2.37724 -0 -43.7892 -0 -2.62308 6.04182 -1.84797 -5.09097 12.1595 -3.44345 -5.09097 12.1595 -3.44344 2.13182 -8.16965 -7.4237 4.41008 -0.637819 14.3811 -1.55265 1.98914 -17.5738 -26.9358 -37.3459 -10.0531 -27.5753 38.7848 -20.1141 23.8548 -0.905502 -9.02783 -1.18459e-006 -1.09556e-006 4.28686e-007 -1.90996e-006 -7.79156e-007 1.0729e-006 -2.36917e-006 -2.19112e-006 8.57372e-007 -1.18459e-006 -1.09556e-006 4.28686e-007 -0.0146012 -9.21757e-005 4.90631e-006 -2.36908e-006 -2.19123e-006 8.57095e-007 -1.18459e-006 -1.09556e-006 4.28686e-007 -0.018789 -0.00117632 5.67994e-005 -2.36905e-006 -2.19125e-006 8.57037e-007 -1.18459e-006 -1.09556e-006 4.28686e-007 -0.012264 -0.00325264 0.000676161 -2.36908e-006 -2.19118e-006 8.57201e-007 -1.18459e-006 -1.09556e-006 4.28686e-007 -1.90996e-006 -7.79156e-007 1.0729e-006 -2.36917e-006 -2.19112e-006 8.57372e-007 14.8494 -18.2213 -14.8203 17.7583 25.9914 -8.12086 -39.0604 -0.237213 21.7586 -1.2248 5.08305 5.24409 8.49784e-007 -8.60987e-009 4.32577e-008 5.40722e-009 8.7066e-009 -1.06223e-007 8.49784e-007 -8.60987e-009 4.32577e-008 8.49784e-007 -8.60987e-009 4.32577e-008 0.0151409 -9.18242e-005 1.94008e-007 8.49793e-007 -8.60421e-009 4.32582e-008 8.49784e-007 -8.60987e-009 4.32577e-008 0.0188358 -0.00118108 -5.90594e-005 8.49796e-007 -8.60304e-009 4.32504e-008 8.49784e-007 -8.60987e-009 4.32577e-008 0.0122773 -0.00325021 -0.000675903 8.49793e-007 -8.6022e-009 4.32341e-008 8.49784e-007 -8.60987e-009 4.32577e-008 5.40722e-009 8.7066e-009 -1.06223e-007 8.49784e-007 -8.60987e-009 4.32577e-008 -28 -17.6331 -28.1092 -5.83701 54.2444 3.80216 -21.6026 7.67824 32.2432 -1.6764e-006 4.13868e-007 -4.52217e-007 -5.53058 -30.742 11.9168 4.25297 40.2654 -4.34753 3.64338 8.11791 -6.68856 -4.6273e-007 2.48149e-009 -1.12958e-007 
-15.2095 8.23349 -1.70083 -0 -82.5084 -0 -4.82171 11.0663 -4.08175 -9.07874 22.4187 -7.39798 -9.07874 22.4187 -7.39798 2.21235 -15.0319 -14.3493 8.56292 -1.19114 27.1138 -1.95666 3.27134 -33.1552 -76.4466 -66.0821 -39.7651 -12.5806 57.9617 -67.288 44.7131 -1.65198 -17.0155 2.38544e-008 -9.4833e-008 1.19411e-006 -5.93831e-006 4.07072e-007 6.96779e-007 -3.65364e-006 5.06049e-008 1.23781e-006 2.38544e-008 -9.4833e-008 1.19411e-006 -0.014609 -8.90601e-005 9.28026e-007 -3.65171e-006 5.04589e-008 1.23782e-006 2.38544e-008 -9.4833e-008 1.19411e-006 -0.0187576 -0.00117494 5.93951e-005 2.38911e-008 -9.50269e-008 1.1941e-006 2.38544e-008 -9.4833e-008 1.19411e-006 -0.0122566 -0.00324722 0.00067403 -3.65199e-006 5.09218e-008 1.23783e-006 2.38544e-008 -9.4833e-008 1.19411e-006 -5.93831e-006 4.07072e-007 6.96779e-007 -3.65364e-006 5.06049e-008 1.23781e-006 19.2805 -31.2556 -31.4569 42.2141 47.5243 -20.6009 -73.4609 -0.363212 40.9985 -3.09747 9.46375 9.9731 1.33904e-008 1.83524e-007 1.85256e-008 -6.69521e-009 -9.17621e-008 -9.26278e-009 8.82781e-032 1.59028e-015 -3.18055e-015 1.33904e-008 1.83524e-007 1.85256e-008 0.014995 -9.18149e-005 1.90135e-006 9.93923e-016 2.38542e-015 -0 1.33904e-008 1.83524e-007 1.85256e-008 0.0190032 -0.00119172 -6.05194e-005 2.18663e-015 -7.95139e-016 -3.18055e-015 1.33904e-008 1.83524e-007 1.85256e-008 0.0122616 -0.00324603 -0.000675215 9.93923e-016 1.59028e-015 -0 1.33904e-008 1.83524e-007 1.85256e-008 -6.69521e-009 -9.17621e-008 -9.26278e-009 8.82781e-032 1.59028e-015 -3.18055e-015 -68.3236 -23.8741 -57.3065 -144.716 78.2239 139.83 -46.4246 9.70018 59.3314 1.73937e-016 -7.95139e-016 1.19271e-015 9.42782 -54.548 34.0177 27.6608 71.3847 -26.445 5.75451 18.0624 -11.5764 8.82781e-032 3.18055e-015 -1.59028e-015 
-17.854 -2.12259 -3.94087 -180 -83.383 -180 -5.55493 12.827 -5.06031 -10.3075 26.0523 -9.15239 -10.3075 26.0523 -9.15238 1.80886 -17.2396 -17.0206 10.1571 -1.80176 31.83 -1.89749 3.4512 -38.8485 -114.789 -71.221 -69.9329 -0.266266 55.6889 -89.2431 52.2614 -1.90193 -19.928 2.85753e-015 -4.77083e-015 5.96354e-016 -1.49089e-016 -6.36111e-015 9.93923e-016 -1.2424e-016 -3.18055e-015 2.98177e-016 2.85753e-015 -4.77083e-015 5.96354e-016 -0.0145968 -8.85485e-005 -2.48834e-006 3.53287e-006 5.738e-007 -4.42141e-007 2.85753e-015 -4.77083e-015 5.96354e-016 -0.0187815 -0.00117773 5.8951e-005 3.53341e-006 5.73956e-007 -4.42162e-007 2.85753e-015 -4.77083e-015 5.96354e-016 -0.0123128 -0.003258 0.000681008 2.50966e-015 0 -9.93923e-017 2.85753e-015 -4.77083e-015 5.96354e-016 -1.49089e-016 -6.36111e-015 9.93923e-016 -1.2424e-016 -3.18055e-015 2.98177e-016 18.6926 -34.592 -38.763 55.09 54.4373 -28.469 -85.9733 -0.377015 48.0093 -4.00711 10.9577 11.6999 1.31695e-015 9.93923e-016 9.54166e-015 1.46604e-015 6.95746e-016 9.54166e-015 8.44835e-016 6.95746e-016 6.36111e-015 1.31695e-015 9.93923e-016 9.54166e-015 0.0150152 -9.148e-005 1.17411e-006 -2.90723e-015 -2.98177e-016 -1.27222e-014 1.31695e-015 9.93923e-016 9.54166e-015 0.0189967 -0.00119146 -5.73935e-005 1.44119e-015 -2.98177e-016 -0 1.31695e-015 9.93923e-016 9.54166e-015 0.0122574 -0.00324496 -0.000674935 3.72721e-015 -7.95139e-016 6.36111e-015 1.31695e-015 9.93923e-016 9.54166e-015 1.46604e-015 6.95746e-016 9.54166e-015 8.44835e-016 6.95746e-016 6.36111e-015 -84.6118 -22.6447 -68.1776 -164.816 62.9952 157.696 -56.1222 7.51401 69.0992 2.13135e-007 -7.55022e-009 -7.42447e-009 23.1692 -60.4657 49.4076 65.8848 78.8323 -63.3329 7.11661 21.7041 -13.826 -1.11962e-006 -2.38534e-007 1.52363e-006 
